<svg width="172" height="245" viewBox="0 0 172 245" fill="none" xmlns="http://www.w3.org/2000/svg">
    <path d="M100.346 243.509L123.085 207.493C123.726 206.478 124.941 205.982 126.109 206.259L167.553 216.088C169.776 216.615 171.666 214.409 170.803 212.293L135.623 126.067L60.1894 156.843L95.3694 243.069C96.2324 245.187 99.1264 245.442 100.346 243.509Z"
          fill="url(#paint0_linear_1_7)"/>
    <path d="M110.825 156.843L106.728 166.885L91.5804 204.012L90.9544 205.542L85.5074 218.899L75.6444 243.069C74.7814 245.184 71.8894 245.439 70.6664 243.509L47.9274 207.494C47.2904 206.48 46.0734 205.982 44.9024 206.26L3.45843 216.088C1.23943 216.615 -0.649567 214.407 0.213433 212.292L35.3934 126.065L110.825 156.843Z"
          fill="url(#paint1_linear_1_7)"/>
    <path d="M85.5074 166.888C131.592 166.888 168.951 129.529 168.951 83.444C168.951 37.3591 131.592 0 85.5074 0C39.4226 0 2.06345 37.3591 2.06345 83.444C2.06345 129.529 39.4226 166.888 85.5074 166.888Z"
          fill="url(#paint2_linear_1_7)"/>
    <path d="M85.5075 159.468C127.494 159.468 161.531 125.431 161.531 83.444C161.531 41.4571 127.494 7.42 85.5075 7.42C43.5206 7.42 9.48346 41.4571 9.48346 83.444C9.48346 125.431 43.5206 159.468 85.5075 159.468Z"
          fill="url(#paint3_linear_1_7)"/>
    <path d="M85.5074 154.815C124.925 154.815 156.878 122.861 156.878 83.444C156.878 44.0269 124.925 12.073 85.5074 12.073C46.0903 12.073 14.1364 44.0269 14.1364 83.444C14.1364 122.861 46.0903 154.815 85.5074 154.815Z"
          fill="url(#paint4_linear_1_7)"/>
    <defs>
        <linearGradient id="paint0_linear_1_7" x1="64.5036" y1="207.058" x2="166.846" y2="164.969"
                        gradientUnits="userSpaceOnUse">
            <stop offset="0.0012" stop-color="#FF0000"/>
            <stop offset="0.0444" stop-color="#E10000"/>
            <stop offset="0.0825" stop-color="#960000"/>
            <stop offset="0.2948" stop-color="#F80003"/>
            <stop offset="0.4449" stop-color="#DC0004"/>
            <stop offset="0.5583" stop-color="#F80003"/>
            <stop offset="0.6944" stop-color="#CD0001"/>
            <stop offset="0.8484" stop-color="#980001"/>
            <stop offset="0.9621" stop-color="#E30002"/>
            <stop offset="1" stop-color="#FF0002"/>
        </linearGradient>
        <linearGradient id="paint1_linear_1_7" x1="1.76443" y1="165.329" x2="115.183" y2="209.042"
                        gradientUnits="userSpaceOnUse">
            <stop offset="0.0012" stop-color="#FF0000"/>
            <stop offset="0.0444" stop-color="#E10000"/>
            <stop offset="0.0825" stop-color="#960000"/>
            <stop offset="0.2948" stop-color="#F80003"/>
            <stop offset="0.4449" stop-color="#DC0004"/>
            <stop offset="0.5583" stop-color="#F80003"/>
            <stop offset="0.6944" stop-color="#CD0001"/>
            <stop offset="0.8484" stop-color="#980001"/>
            <stop offset="0.9621" stop-color="#E30002"/>
            <stop offset="1" stop-color="#FF0002"/>
        </linearGradient>
        <linearGradient id="paint2_linear_1_7" x1="21.3546" y1="27.9675" x2="165.491" y2="152.61"
                        gradientUnits="userSpaceOnUse">
            <stop stop-color="#93918F"/>
            <stop offset="0.1275" stop-color="#C0BCB7"/>
            <stop offset="0.2666" stop-color="#A4A6A9"/>
            <stop offset="0.4023" stop-color="#C1C1C5"/>
            <stop offset="0.5441" stop-color="#F4F4F5"/>
            <stop offset="0.6944" stop-color="#C3C6CA"/>
            <stop offset="0.8472" stop-color="#E7E7E3"/>
            <stop offset="1" stop-color="#707574"/>
        </linearGradient>
        <linearGradient id="paint3_linear_1_7" x1="9.48376" y1="83.444" x2="161.531" y2="83.444"
                        gradientUnits="userSpaceOnUse">
            <stop stop-color="#787675"/>
            <stop offset="0.1275" stop-color="#A6A29E"/>
            <stop offset="0.2666" stop-color="#6F7173"/>
            <stop offset="0.4023" stop-color="#828285"/>
            <stop offset="0.5441" stop-color="#AFAFB0"/>
            <stop offset="0.6944" stop-color="#67696B"/>
            <stop offset="0.846" stop-color="#ADADAA"/>
            <stop offset="1" stop-color="#707574"/>
        </linearGradient>
        <linearGradient id="paint4_linear_1_7" x1="32.2353" y1="37.4916" x2="187.005" y2="170.995"
                        gradientUnits="userSpaceOnUse">
            <stop stop-color="#93918F"/>
            <stop offset="0.1275" stop-color="#C0BCB7"/>
            <stop offset="0.2666" stop-color="#A4A6A9"/>
            <stop offset="0.4023" stop-color="#C1C1C5"/>
            <stop offset="0.5441" stop-color="#F4F4F5"/>
            <stop offset="0.6944" stop-color="#C3C6CA"/>
            <stop offset="0.8472" stop-color="#E7E7E3"/>
            <stop offset="1" stop-color="#707574"/>
        </linearGradient>
    </defs>
</svg>
